<?xml version="1.0" encoding="UTF-8"?>
<svg
  xmlns="http://www.w3.org/2000/svg"
  viewBox="0 0 294.04 32.71"
>
  <defs>
    <style>
      .cls-1 { fill:#231f20; }
    </style>
  </defs>

  <!-- shift everything 2px right and 2px down -->
  <g transform="translate(2,2)">
    <path class="cls-1" d="M0,18.77v-8.87C0,3.02,3.1,0,7.18,0h3.95c3.99,0,7.05,2.93,7.18,9.38h-5.77c0-2.12-1.1-3.69-2.93-3.69h-.85c-1.78,0-2.93,1.57-2.93,3.69v9.89c0,2.21,1.15,3.74,2.93,3.74h1.32c1.61,0,2.42-1.02,2.42-3.31h-2.72v-5.18h8.58v14.01h-5.82v-1.7c-.98.98-2,1.87-3.86,1.87h-1.49c-4.08,0-7.18-3.06-7.18-9.94Z"/>
    <path class="cls-1" d="M29.43.34h9.98l1.87.04c3.27.09,6.16,3.52,6.16,7.3v2.12c0,2.93-1.36,5.48-3.61,6.71l5.14,12.19h-6.46l-4.33-11.55h-2.93v11.55h-5.82V.34ZM41.53,8.79c0-1.87-1.23-3.18-2.97-3.18h-3.31v6.28h3.31c1.74,0,2.97-1.32,2.97-3.1Z"/>
    <path class="cls-1" d="M61.46.34h6.62l5.56,28.37h-5.35l-.72-3.78h-5.56l-.72,3.78h-5.39L61.46.34ZM66.6,20.13l-1.78-9.17h-.04l-1.78,9.17h3.61Z"/>
    <path class="cls-1" d="M82.06,18.73v-8.79c0-6.33,2.63-9.94,7.18-9.94h3.9c4.46,0,7.09,3.44,7.22,9.43h-5.73c0-2.29-1.23-3.82-2.97-3.82h-.85c-1.74,0-2.89,1.4-2.89,3.74v10.06c0,2.29,1.1,3.69,2.89,3.69h.85c1.74,0,2.97-1.61,2.97-3.86h5.73c-.13,5.99-2.76,9.47-7.22,9.47h-3.9c-4.54,0-7.18-3.65-7.18-9.98Z"/>
    <path class="cls-1" d="M109.39.34h16.69v5.27h-10.83v6.24h6.37v5.31h-6.37v6.28h10.7v5.27h-16.56V.34Z"/>
    <path class="cls-1" d="M133.8,20.09v-.64h5.82c-.04,2.25,1.27,3.82,3.19,3.82h.55c1.53,0,2.46-1.02,2.46-2.55,0-1.23-.81-2.08-2.76-2.93l-3.23-1.44c-3.78-1.7-6.03-4.71-6.03-8.11v-.47c0-4.59,3.27-7.77,8.03-7.77h2.42c4.88,0,7.77,3.18,7.77,8.54v.81h-5.65v-.55c0-2.08-1.02-3.4-3.1-3.4h-.34c-1.91,0-3.18,1.02-3.18,2.59,0,1.23.89,2.12,3.1,3.14l3.23,1.49c3.78,1.66,5.82,4.33,5.82,7.69v.38c0,5.05-2.93,8.03-7.94,8.03h-1.95c-5.31,0-8.2-3.02-8.2-8.62Z"/>
    <path class="cls-1" d="M182.5.55h8.07l2.27,12.35,2.22-12.35h8.03v28.16h-4.82V9.23l-3.71,19.47h-3.54l-3.75-19.47v19.47h-4.78V.55Z"/>
    <path class="cls-1" d="M214.62.34h16.69v5.27h-10.83v6.24h6.37v5.31h-6.37v6.28h10.7v5.27h-16.56V.34Z"/>
    <path class="cls-1" d="M238.57.34h5.52l3.36,16.73,3.31-16.73h2.72l2.89,14.61,2.93-14.61h5.48l-5.65,28.37h-4.76l-3.06-15.12-2.97,15.12h-4.12L238.57.34Z"/>
    <path class="cls-1" d="M271.82,20.09v-.64h5.82c-.04,2.25,1.27,3.82,3.19,3.82h.55c1.53,0,2.46-1.02,2.46-2.55,0-1.23-.81-2.08-2.76-2.93l-3.23-1.44c-3.78-1.7-6.03-4.71-6.03-8.11v-.47c0-4.59,3.27-7.77,8.03-7.77h2.42c4.88,0,7.77,3.18,7.77,8.54v.81h-5.65v-.55c0-2.08-1.02-3.4-3.1-3.4h-.34c-1.91,0-3.18,1.02-3.18,2.59,0,1.23.89,2.12,3.1,3.14l3.23,1.49c3.78,1.66,5.82,4.33,5.82,7.69v.38c0,5.05-2.93,8.03-7.94,8.03h-1.95c-5.31,0-8.2-3.02-8.2-8.62Z"/>
  </g>
</svg>
