<?xml version="1.0" encoding="UTF-8"?><svg id="Layer_2_copy" xmlns="http://www.w3.org/2000/svg" viewBox="0 0 404.22 39.75"><path d="M100.38,27.63L94.97.19h-9.14l-5.41,27.44-1.31,6.65-1.04,5.28h7.49l1.04-5.28h7.6l1.04,5.28h7.49l-1.04-5.28-1.31-6.65ZM87.91,27.63l2.49-12.64,2.49,12.64h-4.98Z"/><polygon points="152.77 7.65 152.77 16.15 152.77 23.51 152.77 32.2 152.77 35.88 152.77 39.56 175.8 39.56 175.8 32.2 160.81 32.2 160.81 23.51 169.76 23.51 169.76 16.15 160.81 16.15 160.81 7.65 175.95 7.65 175.95 .29 152.77 .29 152.77 7.65"/><path d="M126.62,7.85h1.18c2.51,0,4.09,2.21,4.09,5.23h8.04c-.2-9.08-4.45-13.08-9.97-13.08h-5.49c-5.66,0-9.98,4.19-9.98,13.75v12.25c0,9.56,4.33,13.75,9.98,13.75h5.49c5.52,0,9.78-4,9.97-13.08h-8.04c0,3.02-1.58,5.23-4.09,5.23h-1.18c-2.51,0-4.09-2.21-4.09-5.23v-13.59c0-3.02,1.58-5.23,4.09-5.23Z"/><path d="M66.12,13.36v-2.91c0-5.87-4.58-10.16-8.55-10.16l-2.63-.02h-13.79v39.29h8.04v-16.01h4.04s6.03,16.01,6.03,16.01h8.92l-7.06-16.9c2.99-1.6,4.98-5.13,4.99-9.31ZM53.82,16.23h-4.62V7.6h4.62c2.54,0,4.1,1.93,4.1,4.31s-1.56,4.31-4.1,4.31Z"/><path d="M13.52,27.27h3.87c0,3.17-1.14,4.66-3.46,4.66h-1.8c-2.51,0-4.09-2.21-4.09-5.23v-13.62c0-3.02,1.58-5.23,4.09-5.23h1.18c2.51,0,4.09,2.21,4.09,5.23h8.04C25.25,4,20.99,0,15.47,0h-5.49C4.33,0,0,4.19,0,13.75v12.25c0,9.56,4.33,13.75,9.98,13.75h2.08c2.57,0,3.87-1.12,5.35-2.54v2.36s8.04,0,8.04,0v-19.48h-11.94v7.19Z"/><path d="M395.66,17.19c-1.66-.67-5.02-2.02-6.81-3.3-.89-.64-1.43-1.62-1.43-2.7,0-1.98,1.87-3.58,4.18-3.58,5.6,0,4.92,4.55,5,5.31l7.44-.07c.07-.5.1-1.01.1-1.53,0-6.26-2.71-11.33-12.19-11.33s-12.75,5.07-12.75,11.33c0,4.81,2.93,8.63,7.51,10.88,2.66,1.31,6.59,3.07,7.54,3.51,1.39.65,1.84,1.85,1.84,2.93,0,1.98-1.87,3.58-4.18,3.58-1.64,0-4.65-.95-4.6-5.17h-7.95c-.07.5-.07.72-.07,1.24,0,6.26,2.84,11.45,12.31,11.45,10.09,0,12.62-5.31,12.62-11.57,0-1.64,0-7.55-8.57-10.99Z"/><path d="M203.2,17.19c-1.66-.67-5.02-2.02-6.81-3.3-.89-.64-1.43-1.62-1.43-2.7,0-1.98,1.87-3.58,4.18-3.58,5.6,0,4.92,4.55,5,5.31l7.44-.07c.07-.5.1-1.01.1-1.53,0-6.26-2.71-11.33-12.19-11.33s-12.75,5.07-12.75,11.33c0,4.81,2.93,8.63,7.51,10.88,2.66,1.31,6.59,3.07,7.54,3.51,1.39.65,1.84,1.85,1.84,2.93,0,1.98-1.87,3.58-4.18,3.58-1.64,0-4.65-.95-4.6-5.17h-7.95c-.07.5-.07.72-.07,1.24,0,6.26,2.84,11.45,12.31,11.45,10.09,0,12.62-5.31,12.62-11.57,0-1.64,0-7.55-8.57-10.99Z"/><polygon points="357.63 20.45 353.95 2.09 353.59 .29 349.85 .29 348.42 7.45 345.22 23.41 340.63 .29 333.04 .29 340.84 39.56 346.46 39.56 350.65 18.61 354.84 39.56 361.42 39.56 369.22 .29 361.63 .29 357.63 20.45"/><polygon points="268.87 16.85 265.93 .29 254.37 .29 254.37 39.56 261.83 39.56 261.83 12.91 265.69 34.77 266.54 39.56 271.2 39.56 272.05 34.77 275.91 12.91 275.91 39.56 283.37 39.56 283.37 .29 271.81 .29 268.87 16.85"/><polygon points="299.41 7.65 299.41 16.15 299.41 23.51 299.41 32.2 299.41 35.88 299.41 39.56 322.44 39.56 322.44 32.2 307.46 32.2 307.46 23.51 316.4 23.51 316.4 16.15 307.46 16.15 307.46 7.65 322.59 7.65 322.59 .29 299.41 .29 299.41 7.65"/></svg>